<svg viewBox="0 0 560 320" width="560" height="320" xmlns="http://www.w3.org/2000/svg" role="img" font-family="-apple-system,Segoe UI,Helvetica,Arial,sans-serif">
  <title>OPC UA to UDT loss ledger (9 members): 8 clean / 1 side-channel preserved / 0 type-identity lost</title>
  <rect x="8" y="8" width="544" height="304" rx="12" fill="#ffffff" stroke="#d0d7de"/>
  <text x="32" y="44" font-size="16" font-weight="600" fill="#1f2328">OPC UA to UDT — loss ledger (example: 9 members)</text>
  <text x="32" y="64" font-size="12" fill="#57606a">honesty as a first-class output (ADR-0010)</text>
  <!-- segmented bar: 9 cells, 8 clean + 1 side-channel + 0 type-identity-lost -->
  <g>
    <rect x="32" y="92" width="40" height="40" fill="#1a7f37" stroke="#ffffff"/>
    <rect x="72" y="92" width="40" height="40" fill="#1a7f37" stroke="#ffffff"/>
    <rect x="112" y="92" width="40" height="40" fill="#1a7f37" stroke="#ffffff"/>
    <rect x="152" y="92" width="40" height="40" fill="#1a7f37" stroke="#ffffff"/>
    <rect x="192" y="92" width="40" height="40" fill="#1a7f37" stroke="#ffffff"/>
    <rect x="232" y="92" width="40" height="40" fill="#1a7f37" stroke="#ffffff"/>
    <rect x="272" y="92" width="40" height="40" fill="#1a7f37" stroke="#ffffff"/>
    <rect x="312" y="92" width="40" height="40" fill="#1a7f37" stroke="#ffffff"/>
    <rect x="352" y="92" width="40" height="40" fill="#9a6700" stroke="#ffffff"/>
  </g>
  <text x="32" y="156" font-size="13" font-weight="600" fill="#1f2328">8 clean / 1 side-channel preserved / 0 type-identity lost</text>
  <!-- legend: 4 LossClasses -->
  <g font-size="12" fill="#1f2328">
    <rect x="32" y="186" width="14" height="14" fill="#1a7f37"/><text x="54" y="198">CLEAN — 8</text>
    <rect x="32" y="212" width="14" height="14" fill="#0969da"/><text x="54" y="224">PRECISION_LOSS — 0</text>
    <rect x="32" y="238" width="14" height="14" fill="#cf222e"/><text x="54" y="250">TYPE_IDENTITY_LOSS — 0</text>
    <rect x="32" y="264" width="14" height="14" fill="#9a6700"/><text x="54" y="276">SIDE_CHANNEL_REQUIRED — 1</text>
  </g>
  <text x="300" y="224" font-size="11" fill="#57606a">lossless truth kept verbatim in</text>
  <text x="300" y="240" font-size="11" font-family="ui-monospace,Consolas,monospace" fill="#57606a">ua_ticks / ua_statuscode</text>
</svg>
